<?xml version="1.0" encoding="UTF-8" standalone="no"?>
<svg
   xmlns:dc="http://purl.org/dc/elements/1.1/"
   xmlns:cc="http://creativecommons.org/ns#"
   xmlns:rdf="http://www.w3.org/1999/02/22-rdf-syntax-ns#"
   xmlns:svg="http://www.w3.org/2000/svg"
   xmlns="http://www.w3.org/2000/svg"
   xmlns:sodipodi="http://sodipodi.sourceforge.net/DTD/sodipodi-0.dtd"
   xmlns:inkscape="http://www.inkscape.org/namespaces/inkscape"
   version="1.1"
   id="svg2"
   xml:space="preserve"
   width="1122.52"
   height="793.70667"
   viewBox="0 0 1122.52 793.70667"
   sodipodi:docname="LAIANE SOUTO - LOGOTIPO.ai"><metadata
     id="metadata8"><rdf:RDF><cc:Work
         rdf:about=""><dc:format>image/svg+xml</dc:format><dc:type
           rdf:resource="http://purl.org/dc/dcmitype/StillImage" /></cc:Work></rdf:RDF></metadata><defs
     id="defs6"><clipPath
       clipPathUnits="userSpaceOnUse"
       id="clipPath22"><path
         d="M 0,595.28 H 841.89 V 0 H 0 Z"
         id="path20" /></clipPath></defs><sodipodi:namedview
     pagecolor="#ffffff"
     bordercolor="#666666"
     borderopacity="1"
     objecttolerance="10"
     gridtolerance="10"
     guidetolerance="10"
     inkscape:pageopacity="0"
     inkscape:pageshadow="2"
     inkscape:window-width="640"
     inkscape:window-height="480"
     id="namedview4" /><g
     id="g10"
     inkscape:groupmode="layer"
     inkscape:label="LAIANE SOUTO - LOGOTIPO"
     transform="matrix(1.3333333,0,0,-1.3333333,0,793.70667)"><g
       id="g12"
       transform="translate(74.267,263.9788)"><path
         d="m 0,0 v -132.034 h 27.966 v -16.932 H -17.503 V 0 Z"
         style="fill:#de317a;fill-opacity:1;fill-rule:nonzero;stroke:none"
         id="path14" /></g><g
       id="g16"><g
         id="g18"
         clip-path="url(#clipPath22)"><g
           id="g24"
           transform="translate(140.0923,129.4726)"><path
             d="m 0,0 c 2.663,0 5.137,0.571 7.421,1.712 2.282,1.142 4.499,2.789 6.657,4.946 v 44.71 C 11.795,49.971 9.766,48.671 7.991,47.466 6.213,46.261 4.501,45.023 2.854,43.758 -3.109,39.063 -7.167,34.559 -9.322,30.248 c -2.158,-4.311 -3.235,-8.878 -3.235,-13.697 0,-5.963 1.142,-10.212 3.425,-12.747 C -6.848,1.265 -3.805,0 0,0 m -24.542,90.368 c 2.789,4.057 6.594,7.23 11.415,9.512 4.819,2.283 10.018,3.425 15.601,3.425 9.257,0 16.171,-2.949 20.736,-8.847 4.567,-5.896 6.85,-13.478 6.85,-22.735 V -14.46 H 19.405 l -3.043,6.469 c -2.919,-2.41 -6.183,-4.347 -9.798,-5.802 -3.615,-1.457 -7.453,-2.19 -11.511,-2.19 -3.171,0 -6.247,0.543 -9.226,1.619 -2.982,1.076 -5.612,2.788 -7.895,5.135 -2.284,2.346 -4.091,5.423 -5.423,9.229 -1.331,3.804 -1.997,8.494 -1.997,14.078 0,4.309 0.442,8.242 1.331,11.795 0.887,3.549 2.314,6.913 4.281,10.083 1.965,3.17 4.471,6.279 7.514,9.323 3.045,3.043 6.659,6.15 10.845,9.322 2.788,2.028 5.833,4.152 9.133,6.375 3.296,2.218 6.782,4.471 10.462,6.754 v 3.614 c 0,4.819 -1.141,8.752 -3.423,11.795 -2.283,3.044 -5.774,4.567 -10.464,4.567 -3.3,0 -6.279,-0.796 -8.943,-2.379 -2.663,-1.587 -4.821,-3.777 -6.468,-6.565 z"
             style="fill:#de317a;fill-opacity:1;fill-rule:nonzero;stroke:none"
             id="path26" /></g><path
           d="m 204.205,115.013 h -16.932 v 116.243 h 16.932 z m -8.751,153.342 c 3.424,0 5.959,-0.986 7.61,-2.951 1.646,-1.967 2.472,-4.407 2.472,-7.324 0,-2.919 -0.826,-5.422 -2.472,-7.514 -1.651,-2.093 -4.186,-3.14 -7.61,-3.14 -3.301,0 -5.742,1.047 -7.325,3.14 -1.588,2.092 -2.378,4.595 -2.378,7.514 0,2.917 0.79,5.357 2.378,7.324 1.583,1.965 4.024,2.951 7.325,2.951"
           style="fill:#de317a;fill-opacity:1;fill-rule:nonzero;stroke:none"
           id="path28" /><g
           id="g30"
           transform="translate(247.5819,129.4726)"><path
             d="m 0,0 c 2.663,0 5.137,0.571 7.421,1.712 2.282,1.142 4.499,2.789 6.657,4.946 v 44.71 C 11.795,49.971 9.766,48.671 7.991,47.466 6.213,46.261 4.501,45.023 2.854,43.758 -3.109,39.063 -7.167,34.559 -9.322,30.248 c -2.157,-4.311 -3.235,-8.878 -3.235,-13.697 0,-5.963 1.142,-10.212 3.425,-12.747 C -6.848,1.265 -3.805,0 0,0 m -24.542,90.368 c 2.789,4.057 6.594,7.23 11.415,9.512 4.819,2.283 10.018,3.425 15.601,3.425 9.257,0 16.171,-2.949 20.736,-8.847 4.567,-5.896 6.85,-13.478 6.85,-22.735 V -14.46 H 19.405 l -3.043,6.469 c -2.919,-2.41 -6.183,-4.347 -9.798,-5.802 -3.615,-1.457 -7.453,-2.19 -11.511,-2.19 -3.171,0 -6.247,0.543 -9.226,1.619 -2.982,1.076 -5.612,2.788 -7.895,5.135 -2.284,2.346 -4.091,5.423 -5.423,9.229 -1.331,3.804 -1.997,8.494 -1.997,14.078 0,4.309 0.442,8.242 1.331,11.795 0.887,3.549 2.314,6.913 4.281,10.083 1.965,3.17 4.471,6.279 7.514,9.323 3.045,3.043 6.659,6.15 10.845,9.322 2.788,2.028 5.833,4.152 9.133,6.375 3.296,2.218 6.782,4.471 10.462,6.754 v 3.614 c 0,4.819 -1.141,8.752 -3.423,11.795 -2.283,3.044 -5.774,4.567 -10.464,4.567 -3.3,0 -6.279,-0.796 -8.943,-2.379 -2.663,-1.587 -4.821,-3.777 -6.468,-6.565 z"
             style="fill:#de317a;fill-opacity:1;fill-rule:nonzero;stroke:none"
             id="path32" /></g><g
           id="g34"
           transform="translate(306.3667,231.2554)"><path
             d="m 0,0 2.663,-6.659 c 2.916,2.663 6.212,4.691 9.892,6.088 3.678,1.394 7.355,2.093 11.035,2.093 3.298,0 6.436,-0.571 9.417,-1.713 2.979,-1.141 5.581,-2.885 7.801,-5.232 2.217,-2.348 3.963,-5.295 5.232,-8.846 1.267,-3.551 1.902,-7.673 1.902,-12.366 v -89.608 H 31.009 v 85.994 c 0,4.819 -0.95,8.529 -2.852,11.131 -1.903,2.596 -5.013,3.899 -9.323,3.899 -4.694,0 -9.197,-2.03 -13.507,-6.089 v -94.935 H -11.606 V 0 Z"
             style="fill:#de317a;fill-opacity:1;fill-rule:nonzero;stroke:none"
             id="path36" /></g><g
           id="g38"
           transform="translate(386.8413,167.9041)"><path
             d="m 0,0 c 5.708,3.675 10.084,6.973 13.127,9.891 3.93,3.677 6.723,7.294 8.372,10.845 1.647,3.549 2.473,7.673 2.473,12.366 0,6.087 -1.237,10.302 -3.709,12.651 -2.474,2.347 -5.36,3.521 -8.657,3.521 -3.68,0 -6.534,-1.174 -8.561,-3.521 C 1.014,43.404 0,40.141 0,35.956 Z M 21.69,-0.763 C 19.025,-3.046 15.887,-5.489 12.271,-8.088 8.657,-10.689 4.567,-13.447 0,-16.364 v -9.323 c 0,-4.059 1.142,-7.132 3.425,-9.226 2.283,-2.091 5.199,-3.14 8.752,-3.14 3.677,0 6.659,1.049 8.942,3.14 2.282,2.094 3.423,5.167 3.423,9.226 v 7.421 l 15.411,3.996 v -11.988 c 0,-4.44 -0.731,-8.37 -2.188,-11.795 -1.459,-3.425 -3.49,-6.372 -6.087,-8.845 -2.602,-2.472 -5.614,-4.347 -9.037,-5.612 -3.425,-1.268 -7.105,-1.904 -11.035,-1.904 -3.933,0 -7.58,0.636 -10.939,1.904 -3.362,1.265 -6.311,3.14 -8.846,5.612 -2.54,2.473 -4.537,5.42 -5.994,8.845 -1.46,3.425 -2.187,7.355 -2.187,11.795 v 62.974 c 0,4.312 0.727,8.211 2.187,11.702 1.457,3.485 3.454,6.467 5.994,8.94 2.535,2.474 5.516,4.344 8.941,5.613 3.424,1.265 7.102,1.902 11.034,1.902 3.424,0 6.849,-0.508 10.274,-1.522 3.425,-1.016 6.468,-2.729 9.132,-5.137 2.663,-2.411 4.852,-5.548 6.563,-9.417 1.712,-3.87 2.568,-8.722 2.568,-14.553 0,-7.229 -1.491,-13.541 -4.47,-18.931 C 32.881,9.921 28.158,4.564 21.69,-0.763"
             style="fill:#de317a;fill-opacity:1;fill-rule:nonzero;stroke:none"
             id="path40" /></g><g
           id="g42"
           transform="translate(505.7459,266.6421)"><path
             d="m 0,0 c 9.004,0 16.043,-2.663 21.118,-7.991 5.071,-5.327 7.61,-12.366 7.61,-21.118 v -5.327 H 12.557 v 3.996 c 0,4.31 -1.142,7.735 -3.425,10.273 -2.284,2.536 -5.455,3.805 -9.512,3.805 -4.694,0 -8.152,-1.554 -10.37,-4.661 -2.22,-3.109 -3.328,-6.881 -3.328,-11.32 0,-3.68 0.665,-7.134 1.997,-10.368 1.331,-3.234 3.265,-6.629 5.803,-10.178 1.647,-2.412 3.709,-5.203 6.183,-8.37 2.473,-3.172 5.009,-6.501 7.61,-9.989 2.598,-3.491 5.103,-6.916 7.514,-10.275 2.408,-3.362 4.501,-6.438 6.279,-9.226 2.916,-4.693 5.042,-9.131 6.374,-13.318 1.331,-4.186 1.996,-9.007 1.996,-14.458 0,-11.034 -2.41,-19.756 -7.228,-26.161 -4.822,-6.405 -12.367,-9.608 -22.641,-9.608 -4.945,0 -9.354,0.763 -13.222,2.283 -3.869,1.523 -7.134,3.584 -9.797,6.183 -2.663,2.599 -4.727,5.675 -6.183,9.229 -1.46,3.549 -2.189,7.352 -2.189,11.414 v 7.991 l 16.171,-4.185 v -3.617 c 0,-3.551 1.238,-6.657 3.711,-9.319 2.474,-2.665 5.927,-3.996 10.369,-3.996 4.818,0 8.4,1.52 10.748,4.566 2.347,3.044 3.52,7.352 3.52,12.937 0,3.422 -0.541,6.91 -1.617,10.462 -1.08,3.551 -3.014,7.483 -5.803,11.797 -1.396,2.155 -3.139,4.567 -5.232,7.229 -2.092,2.665 -4.281,5.453 -6.563,8.37 -2.283,2.917 -4.536,5.867 -6.753,8.848 -2.222,2.977 -4.22,5.864 -5.994,8.655 -4.313,6.85 -7.261,12.907 -8.846,18.171 -1.588,5.26 -2.378,10.302 -2.378,15.124 0,9.893 2.758,17.722 8.275,23.495 C -16.456,-2.887 -9.132,0 0,0"
             style="fill:#de317a;fill-opacity:1;fill-rule:nonzero;stroke:none"
             id="path44" /></g><g
           id="g46"
           transform="translate(565.1016,142.5987)"><path
             d="m 0,0 c 0,-4.062 1.172,-7.135 3.521,-9.226 2.345,-2.094 5.355,-3.14 9.036,-3.14 3.677,0 6.659,1.046 8.942,3.14 2.283,2.091 3.425,5.164 3.425,9.226 v 61.072 c 0,4.056 -1.142,7.133 -3.425,9.227 -2.283,2.091 -5.265,3.139 -8.942,3.139 -3.681,0 -6.691,-1.048 -9.036,-3.139 C 1.172,68.205 0,65.128 0,61.072 Z m 41.475,-0.952 c 0,-4.441 -0.76,-8.37 -2.283,-11.795 -1.522,-3.425 -3.584,-6.373 -6.183,-8.845 -2.601,-2.473 -5.678,-4.347 -9.227,-5.612 -3.552,-1.268 -7.295,-1.905 -11.225,-1.905 -4.061,0 -7.833,0.637 -11.319,1.905 -3.491,1.265 -6.535,3.139 -9.132,5.612 -2.602,2.472 -4.661,5.42 -6.184,8.845 -1.522,3.425 -2.282,7.354 -2.282,11.795 v 62.974 c 0,4.311 0.76,8.211 2.282,11.702 1.523,3.485 3.582,6.467 6.184,8.939 2.597,2.474 5.641,4.344 9.132,5.614 3.486,1.265 7.258,1.901 11.319,1.901 3.93,0 7.673,-0.636 11.225,-1.901 3.549,-1.27 6.626,-3.14 9.227,-5.614 2.599,-2.472 4.661,-5.454 6.183,-8.939 1.523,-3.491 2.283,-7.391 2.283,-11.702 z"
             style="fill:#de317a;fill-opacity:1;fill-rule:nonzero;stroke:none"
             id="path48" /></g><g
           id="g50"
           transform="translate(681.5322,231.2554)"><path
             d="m 0,0 v -116.243 h -11.604 l -2.854,6.469 c -5.709,-5.327 -12.432,-7.992 -20.167,-7.992 -3.3,0 -6.407,0.571 -9.323,1.713 -2.918,1.141 -5.487,2.884 -7.704,5.233 -2.22,2.344 -3.966,5.261 -5.232,8.752 -1.27,3.485 -1.902,7.64 -1.902,12.459 V 0 h 16.931 v -85.992 c 0,-10.022 3.996,-15.031 11.986,-15.031 4.566,0 8.876,1.965 12.937,5.898 l 0,95.125 z"
             style="fill:#de317a;fill-opacity:1;fill-rule:nonzero;stroke:none"
             id="path52" /></g><g
           id="g54"
           transform="translate(705.121,231.2554)"><path
             d="m 0,0 v 20.356 l 16.362,6.85 V 0 H 35.767 V -14.269 H 16.362 v -73.435 c 0,-4.444 1.14,-7.896 3.423,-10.369 2.283,-2.475 5.262,-3.71 8.943,-3.71 2.915,0 5.769,1.013 8.561,3.044 l 4.566,-14.46 c -2.158,-1.521 -4.599,-2.662 -7.325,-3.425 -2.729,-0.76 -5.55,-1.142 -8.466,-1.142 -4.566,0 -8.499,0.796 -11.796,2.38 -3.299,1.583 -5.992,3.74 -8.085,6.468 -2.093,2.725 -3.647,5.928 -4.661,9.608 C 0.505,-95.633 0,-91.766 0,-87.704 v 73.435 H -12.557 V 0 Z"
             style="fill:#de317a;fill-opacity:1;fill-rule:nonzero;stroke:none"
             id="path56" /></g><g
           id="g58"
           transform="translate(773.0389,142.5987)"><path
             d="m 0,0 c 0,-4.062 1.172,-7.135 3.521,-9.226 2.345,-2.094 5.355,-3.14 9.036,-3.14 3.677,0 6.659,1.046 8.942,3.14 2.283,2.091 3.425,5.164 3.425,9.226 v 61.072 c 0,4.056 -1.142,7.133 -3.425,9.227 -2.283,2.091 -5.265,3.139 -8.942,3.139 -3.681,0 -6.691,-1.048 -9.036,-3.139 C 1.172,68.205 0,65.128 0,61.072 Z m 41.475,-0.952 c 0,-4.441 -0.76,-8.37 -2.283,-11.795 -1.522,-3.425 -3.584,-6.373 -6.183,-8.845 -2.601,-2.473 -5.678,-4.347 -9.227,-5.612 -3.552,-1.268 -7.295,-1.905 -11.225,-1.905 -4.061,0 -7.833,0.637 -11.319,1.905 -3.491,1.265 -6.535,3.139 -9.132,5.612 -2.602,2.472 -4.661,5.42 -6.184,8.845 -1.522,3.425 -2.282,7.354 -2.282,11.795 v 62.974 c 0,4.311 0.76,8.211 2.282,11.702 1.523,3.485 3.582,6.467 6.184,8.939 2.597,2.474 5.641,4.344 9.132,5.614 3.486,1.265 7.258,1.901 11.319,1.901 3.93,0 7.673,-0.636 11.225,-1.901 3.549,-1.27 6.626,-3.14 9.227,-5.614 2.599,-2.472 4.661,-5.454 6.183,-8.939 1.523,-3.491 2.283,-7.391 2.283,-11.702 z"
             style="fill:#de317a;fill-opacity:1;fill-rule:nonzero;stroke:none"
             id="path60" /></g><g
           id="g62"
           transform="translate(222.1491,93.5898)"><path
             d="M 0,0 C 0,0.565 0.253,0.846 0.756,0.846 H 3.594 C 3.762,0.846 3.918,0.827 4.063,0.789 4.207,0.751 4.38,0.548 4.579,0.184 l 14.601,-21.997 1.236,-2.447 -0.182,2.471 V 0 c 0,0.243 0.061,0.446 0.182,0.605 0.122,0.162 0.312,0.241 0.573,0.241 h 2.746 c 0.213,0 0.389,-0.065 0.527,-0.195 0.137,-0.13 0.205,-0.338 0.205,-0.629 v -30.99 c 0,-0.548 -0.266,-0.823 -0.801,-0.823 h -2.357 c -0.167,0 -0.34,0.04 -0.515,0.127 -0.175,0.083 -0.332,0.253 -0.47,0.513 L 5.104,-8.309 4.006,-6.294 4.234,-8.355 v -22.591 c 0,-0.564 -0.244,-0.845 -0.732,-0.845 H 0.756 C 0.253,-31.791 0,-31.51 0,-30.946 Z"
             style="fill:#98bf13;fill-opacity:1;fill-rule:nonzero;stroke:none"
             id="path64" /></g><g
           id="g66"
           transform="translate(267.9251,73.4247)"><path
             d="m 0,0 c 0,-1.221 0.203,-2.337 0.608,-3.352 0.404,-1.016 0.97,-1.886 1.696,-2.61 0.725,-0.724 1.589,-1.288 2.589,-1.693 1.001,-0.406 2.09,-0.606 3.266,-0.606 1.208,0 2.307,0.206 3.301,0.616 0.993,0.414 1.845,0.986 2.556,1.718 0.71,0.732 1.264,1.605 1.661,2.621 0.397,1.015 0.597,2.117 0.597,3.306 v 20.165 c 0,0.23 0.063,0.427 0.193,0.594 0.128,0.168 0.321,0.252 0.581,0.252 h 2.64 c 0.258,0 0.46,-0.084 0.603,-0.252 0.144,-0.167 0.217,-0.364 0.217,-0.594 V -0.113 c 0,-1.878 -0.324,-3.563 -0.972,-5.06 -0.649,-1.494 -1.532,-2.766 -2.653,-3.809 -1.121,-1.045 -2.427,-1.847 -3.922,-2.404 -1.494,-0.556 -3.086,-0.835 -4.779,-0.835 -1.692,0 -3.289,0.281 -4.791,0.846 -1.501,0.564 -2.82,1.375 -3.956,2.426 -1.135,1.053 -2.031,2.336 -2.686,3.846 -0.655,1.51 -0.983,3.204 -0.983,5.081 v 20.209 c 0,0.229 0.071,0.424 0.216,0.583 0.144,0.162 0.323,0.241 0.535,0.241 h 2.755 c 0.273,0 0.462,-0.076 0.569,-0.227 C -0.053,20.63 0,20.433 0,20.187 Z"
             style="fill:#98bf13;fill-opacity:1;fill-rule:nonzero;stroke:none"
             id="path68" /></g><g
           id="g70"
           transform="translate(301.4102,93.6816)"><path
             d="m 0,0 c 0,0.259 0.069,0.448 0.207,0.573 0.136,0.121 0.32,0.181 0.548,0.181 h 20.736 c 0.23,0 0.412,-0.06 0.55,-0.181 C 22.179,0.448 22.246,0.259 22.246,0 v -2.542 c 0,-0.259 -0.067,-0.448 -0.205,-0.573 -0.138,-0.121 -0.32,-0.181 -0.55,-0.181 H 13.23 v -27.785 c 0,-0.535 -0.237,-0.802 -0.711,-0.802 H 9.727 c -0.489,0 -0.732,0.267 -0.732,0.802 v 27.785 h -8.24 c -0.228,0 -0.412,0.065 -0.548,0.195 C 0.069,-2.971 0,-2.777 0,-2.518 Z"
             style="fill:#98bf13;fill-opacity:1;fill-rule:nonzero;stroke:none"
             id="path72" /></g><g
           id="g74"
           transform="translate(341.4635,90.3861)"><path
             d="m 0,0 v -12.383 h 6.752 c 0.824,0 1.594,0.143 2.311,0.435 0.717,0.289 1.346,0.686 1.888,1.189 0.542,0.505 0.966,1.099 1.271,1.785 0.305,0.689 0.458,1.427 0.458,2.221 v 0.894 c 0,0.824 -0.153,1.591 -0.458,2.299 -0.305,0.71 -0.721,1.329 -1.248,1.853 C 10.447,-1.18 9.822,-0.764 9.098,-0.459 8.373,-0.154 7.591,0 6.752,0 Z m -4.144,3.204 c 0,0.564 0.26,0.845 0.778,0.845 H 7.141 c 1.357,0 2.631,-0.246 3.822,-0.743 1.19,-0.497 2.223,-1.172 3.101,-2.026 0.877,-0.853 1.571,-1.858 2.083,-3.009 0.51,-1.153 0.767,-2.377 0.767,-3.674 v -1.396 c 0,-0.916 -0.138,-1.797 -0.412,-2.642 -0.275,-0.848 -0.652,-1.637 -1.133,-2.369 -0.481,-0.732 -1.054,-1.394 -1.717,-1.98 -0.664,-0.589 -1.384,-1.081 -2.163,-1.478 l 0.595,-0.891 4.921,-11.537 c 0.091,-0.214 0.081,-0.416 -0.034,-0.605 -0.115,-0.192 -0.287,-0.287 -0.515,-0.287 h -3.32 c -0.182,0 -0.331,0.041 -0.445,0.127 -0.115,0.084 -0.226,0.254 -0.333,0.513 L 7.576,-16.321 H 0 v -11.443 c 0,-0.259 -0.05,-0.462 -0.15,-0.608 -0.099,-0.143 -0.278,-0.216 -0.537,-0.216 h -2.679 c -0.259,0 -0.454,0.073 -0.583,0.216 -0.13,0.146 -0.195,0.349 -0.195,0.608 z"
             style="fill:#98bf13;fill-opacity:1;fill-rule:nonzero;stroke:none"
             id="path76" /></g><g
           id="g78"
           transform="translate(374.3976,93.5898)"><path
             d="M 0,0 C 0,0.565 0.259,0.846 0.778,0.846 H 3.571 C 3.83,0.846 4.006,0.77 4.098,0.619 4.188,0.465 4.234,0.259 4.234,0 v -30.946 c 0,-0.259 -0.046,-0.465 -0.136,-0.616 -0.092,-0.154 -0.268,-0.229 -0.527,-0.229 H 0.778 C 0.259,-31.791 0,-31.51 0,-30.946 Z"
             style="fill:#98bf13;fill-opacity:1;fill-rule:nonzero;stroke:none"
             id="path80" /></g><g
           id="g82"
           transform="translate(417.9761,69.1918)"><path
             d="M 0,0 C 0.276,-0.154 0.405,-0.357 0.389,-0.608 0.374,-0.859 0.29,-1.137 0.138,-1.442 c -0.534,-1.067 -1.183,-2.01 -1.945,-2.826 -0.763,-0.819 -1.606,-1.499 -2.53,-2.05 -0.922,-0.549 -1.911,-0.965 -2.963,-1.248 -1.054,-0.281 -2.137,-0.422 -3.251,-0.422 -1.83,0 -3.536,0.3 -5.115,0.903 -1.579,0.602 -2.951,1.447 -4.114,2.531 -1.163,1.083 -2.075,2.371 -2.735,3.868 -0.661,1.494 -0.99,3.141 -0.99,4.943 v 9.155 c 0,1.799 0.329,3.46 0.99,4.978 0.66,1.518 1.572,2.826 2.735,3.925 1.163,1.1 2.535,1.956 4.114,2.575 1.579,0.618 3.285,0.926 5.115,0.926 1.114,0 2.197,-0.132 3.251,-0.4 1.052,-0.267 2.043,-0.667 2.975,-1.202 0.931,-0.535 1.778,-1.21 2.541,-2.026 0.762,-0.815 1.418,-1.772 1.968,-2.871 0.167,-0.305 0.24,-0.581 0.217,-0.824 C 0.378,18.247 0.282,18.096 0.115,18.034 l -2.083,-1.029 c -0.473,-0.198 -0.847,-0.054 -1.121,0.434 -0.763,1.497 -1.767,2.607 -3.011,3.331 -1.243,0.724 -2.658,1.086 -4.245,1.086 -1.235,0 -2.4,-0.208 -3.49,-0.629 -1.091,-0.419 -2.038,-1.013 -2.839,-1.783 -0.801,-0.773 -1.434,-1.688 -1.899,-2.747 -0.466,-1.062 -0.698,-2.232 -0.698,-3.515 V 4.668 c 0,-1.281 0.232,-2.456 0.698,-3.525 0.465,-1.067 1.098,-1.983 1.899,-2.745 0.801,-0.764 1.748,-1.356 2.839,-1.775 1.09,-0.418 2.255,-0.629 3.49,-0.629 1.617,0 3.047,0.373 4.291,1.121 1.244,0.748 2.232,1.877 2.965,3.387 0.107,0.214 0.243,0.387 0.412,0.516 0.167,0.13 0.396,0.117 0.686,-0.035 z"
             style="fill:#98bf13;fill-opacity:1;fill-rule:nonzero;stroke:none"
             id="path84" /></g><g
           id="g86"
           transform="translate(433.6084,93.5898)"><path
             d="M 0,0 C 0,0.565 0.259,0.846 0.778,0.846 H 3.571 C 3.83,0.846 4.006,0.77 4.098,0.619 4.188,0.465 4.234,0.259 4.234,0 v -30.946 c 0,-0.259 -0.046,-0.465 -0.136,-0.616 -0.092,-0.154 -0.268,-0.229 -0.527,-0.229 H 0.778 C 0.259,-31.791 0,-31.51 0,-30.946 Z"
             style="fill:#98bf13;fill-opacity:1;fill-rule:nonzero;stroke:none"
             id="path88" /></g><g
           id="g90"
           transform="translate(457.916,73.8137)"><path
             d="m 0,0 c 0,-1.251 0.228,-2.407 0.687,-3.466 0.458,-1.061 1.081,-1.977 1.868,-2.747 0.786,-0.77 1.718,-1.372 2.796,-1.807 1.077,-0.435 2.234,-0.654 3.473,-0.654 1.252,0 2.42,0.219 3.506,0.654 1.085,0.435 2.027,1.037 2.83,1.807 0.802,0.77 1.431,1.683 1.891,2.734 0.457,1.053 0.687,2.207 0.687,3.457 v 8.628 c 0,1.251 -0.23,2.407 -0.687,3.469 -0.46,1.059 -1.089,1.974 -1.891,2.747 -0.803,0.77 -1.745,1.372 -2.83,1.807 -1.086,0.435 -2.246,0.651 -3.483,0.651 -1.239,0 -2.396,-0.216 -3.473,-0.651 C 4.296,16.194 3.362,15.592 2.566,14.822 1.772,14.049 1.145,13.134 0.687,12.075 0.228,11.013 0,9.857 0,8.606 Z m -4.234,8.903 c 0,1.802 0.34,3.453 1.019,4.957 0.68,1.502 1.608,2.799 2.783,3.89 1.176,1.091 2.562,1.937 4.158,2.542 1.596,0.602 3.311,0.902 5.144,0.902 1.816,0 3.523,-0.3 5.119,-0.902 1.596,-0.605 2.985,-1.451 4.169,-2.542 1.183,-1.091 2.115,-2.388 2.795,-3.89 0.679,-1.504 1.019,-3.155 1.019,-4.957 v -9.268 c 0,-1.801 -0.34,-3.449 -1.019,-4.943 -0.68,-1.497 -1.612,-2.785 -2.795,-3.868 -1.184,-1.083 -2.573,-1.929 -4.169,-2.531 -1.596,-0.603 -3.311,-0.903 -5.142,-0.903 -1.833,0 -3.544,0.3 -5.133,0.903 -1.588,0.602 -2.97,1.448 -4.146,2.531 -1.175,1.083 -2.103,2.371 -2.783,3.868 -0.679,1.494 -1.019,3.142 -1.019,4.943 z"
             style="fill:#98bf13;fill-opacity:1;fill-rule:nonzero;stroke:none"
             id="path92" /></g><g
           id="g94"
           transform="translate(495.7029,93.5898)"><path
             d="M 0,0 C 0,0.565 0.253,0.846 0.756,0.846 H 3.594 C 3.762,0.846 3.918,0.827 4.063,0.789 4.207,0.751 4.38,0.548 4.579,0.184 l 14.601,-21.997 1.236,-2.447 -0.182,2.471 V 0 c 0,0.243 0.061,0.446 0.182,0.605 0.122,0.162 0.312,0.241 0.573,0.241 h 2.746 c 0.213,0 0.389,-0.065 0.527,-0.195 0.137,-0.13 0.205,-0.338 0.205,-0.629 v -30.99 c 0,-0.548 -0.266,-0.823 -0.801,-0.823 h -2.357 c -0.167,0 -0.34,0.04 -0.515,0.127 -0.175,0.083 -0.332,0.253 -0.47,0.513 L 5.104,-8.309 4.006,-6.294 4.234,-8.355 v -22.591 c 0,-0.564 -0.244,-0.845 -0.732,-0.845 H 0.756 C 0.253,-31.791 0,-31.51 0,-30.946 Z"
             style="fill:#98bf13;fill-opacity:1;fill-rule:nonzero;stroke:none"
             id="path96" /></g><g
           id="g98"
           transform="translate(537.9767,93.5898)"><path
             d="M 0,0 C 0,0.565 0.259,0.846 0.778,0.846 H 3.571 C 3.83,0.846 4.006,0.77 4.098,0.619 4.188,0.465 4.234,0.259 4.234,0 v -30.946 c 0,-0.259 -0.046,-0.465 -0.136,-0.616 -0.092,-0.154 -0.268,-0.229 -0.527,-0.229 H 0.778 C 0.259,-31.791 0,-31.51 0,-30.946 Z"
             style="fill:#98bf13;fill-opacity:1;fill-rule:nonzero;stroke:none"
             id="path100" /></g><g
           id="g102"
           transform="translate(558.0499,67.6115)"><path
             d="M 0,0 C -0.382,0.732 -0.336,1.199 0.138,1.397 L 2.312,2.588 C 2.464,2.663 2.647,2.674 2.861,2.62 3.074,2.566 3.274,2.358 3.458,1.991 3.747,1.38 4.152,0.805 4.671,0.265 5.189,-0.278 5.786,-0.754 6.467,-1.167 7.145,-1.58 7.882,-1.904 8.674,-2.139 c 0.794,-0.238 1.618,-0.354 2.474,-0.354 0.913,0 1.772,0.105 2.575,0.318 0.799,0.214 1.499,0.535 2.093,0.962 0.594,0.427 1.067,0.956 1.418,1.591 0.351,0.632 0.527,1.362 0.527,2.186 0,0.931 -0.213,1.731 -0.64,2.404 -0.427,0.67 -1.019,1.269 -1.775,1.796 -0.754,0.527 -1.648,1.01 -2.677,1.453 C 11.64,8.66 10.513,9.125 9.292,9.614 7.845,10.208 6.586,10.829 5.516,11.478 4.449,12.126 3.56,12.834 2.85,13.596 c -0.711,0.761 -1.236,1.591 -1.58,2.482 -0.343,0.894 -0.515,1.88 -0.515,2.966 0,1.356 0.278,2.558 0.836,3.604 0.557,1.045 1.307,1.917 2.256,2.62 0.945,0.702 2.044,1.232 3.295,1.591 1.251,0.359 2.577,0.537 3.982,0.537 2.32,0 4.36,-0.461 6.124,-1.383 1.761,-0.923 3.147,-2.309 4.152,-4.154 0.17,-0.276 0.24,-0.535 0.218,-0.778 -0.024,-0.246 -0.156,-0.427 -0.399,-0.551 l -1.878,-0.962 c -0.489,-0.227 -0.907,-0.076 -1.259,0.459 -0.626,1.084 -1.48,1.929 -2.563,2.54 -1.083,0.61 -2.472,0.915 -4.165,0.915 -0.703,0 -1.432,-0.073 -2.186,-0.216 C 8.412,23.12 7.726,22.877 7.107,22.534 6.488,22.191 5.981,21.729 5.586,21.148 5.189,20.568 4.989,19.836 4.989,18.952 c 0,-0.732 0.154,-1.383 0.459,-1.945 0.306,-0.567 0.743,-1.08 1.316,-1.545 0.573,-0.467 1.262,-0.897 2.072,-1.294 0.808,-0.397 1.723,-0.786 2.747,-1.167 1.478,-0.58 2.853,-1.167 4.12,-1.764 1.264,-0.594 2.363,-1.285 3.295,-2.069 0.929,-0.786 1.661,-1.707 2.196,-2.758 0.535,-1.053 0.803,-2.312 0.803,-3.776 0,-1.405 -0.273,-2.664 -0.814,-3.779 -0.542,-1.113 -1.296,-2.059 -2.266,-2.837 -0.97,-0.778 -2.118,-1.377 -3.444,-1.796 -1.326,-0.421 -2.769,-0.629 -4.325,-0.629 -1.191,0 -2.35,0.151 -3.479,0.456 -1.129,0.305 -2.183,0.738 -3.161,1.294 -0.975,0.556 -1.85,1.232 -2.62,2.026 C 1.117,-1.84 0.488,-0.962 0,0"
             style="fill:#98bf13;fill-opacity:1;fill-rule:nonzero;stroke:none"
             id="path104" /></g><g
           id="g106"
           transform="translate(591.6053,93.6816)"><path
             d="m 0,0 c 0,0.259 0.068,0.448 0.205,0.573 0.138,0.121 0.322,0.181 0.551,0.181 h 20.735 c 0.23,0 0.414,-0.06 0.549,-0.181 C 22.178,0.448 22.248,0.259 22.248,0 v -2.542 c 0,-0.259 -0.07,-0.448 -0.208,-0.573 -0.135,-0.121 -0.319,-0.181 -0.549,-0.181 h -8.263 v -27.785 c 0,-0.535 -0.235,-0.802 -0.708,-0.802 H 9.727 c -0.489,0 -0.732,0.267 -0.732,0.802 V -3.296 H 0.756 c -0.229,0 -0.413,0.065 -0.551,0.195 C 0.068,-2.971 0,-2.777 0,-2.518 Z"
             style="fill:#98bf13;fill-opacity:1;fill-rule:nonzero;stroke:none"
             id="path108" /></g><g
           id="g110"
           transform="translate(628.8911,73.0141)"><path
             d="M 0,0 H 11.121 L 6.064,14.557 5.562,17.075 5.057,14.557 Z m 19.225,-10.3 c 0.092,-0.289 0.081,-0.516 -0.035,-0.675 -0.114,-0.16 -0.294,-0.241 -0.538,-0.241 h -2.998 c -0.167,0 -0.332,0.046 -0.492,0.138 -0.159,0.092 -0.278,0.267 -0.354,0.527 l -2.29,6.567 H -1.397 l -2.266,-6.567 c -0.076,-0.26 -0.2,-0.435 -0.367,-0.527 -0.168,-0.092 -0.327,-0.138 -0.481,-0.138 H -7.51 c -0.259,0 -0.445,0.081 -0.559,0.241 -0.113,0.159 -0.119,0.386 -0.011,0.675 L 3.179,20.827 c 0.079,0.259 0.2,0.438 0.368,0.537 0.167,0.1 0.335,0.149 0.502,0.149 h 3.045 c 0.167,0 0.332,-0.049 0.491,-0.149 0.162,-0.099 0.287,-0.278 0.378,-0.537 z"
             style="fill:#98bf13;fill-opacity:1;fill-rule:nonzero;stroke:none"
             id="path112" /></g><g
           id="g114"
           transform="translate(375.2731,375.7556)"><path
             d="m 0,0 c -17.647,8.272 -30.883,17.647 -38.603,28.125 h 58.456 c 3.309,0 5.515,2.206 5.515,5.515 0,3.309 -2.206,5.515 -5.515,5.515 h -63.971 c -1.103,3.86 -2.206,7.169 -2.206,11.029 0,17.096 14.339,30.331 25.919,38.603 2.758,1.655 3.309,4.964 1.655,7.721 -1.655,2.757 -4.963,3.309 -7.721,1.654 -20.404,-14.338 -30.882,-30.882 -30.882,-47.978 0,-23.162 18.75,-44.669 52.941,-60.111 20.405,-9.375 34.743,-20.956 41.912,-33.639 h -61.765 c -3.309,0 -5.515,-2.206 -5.515,-5.515 0,-3.309 2.206,-5.515 5.515,-5.515 h 65.626 c 0.551,-1.654 0.551,-3.86 0.551,-5.515 v -5.514 c 0,-3.309 2.206,-5.515 5.515,-5.515 3.309,0 5.514,2.206 5.514,5.515 v 5.514 C 52.941,-36.949 34.191,-15.441 0,0"
             style="fill:#de317a;fill-opacity:1;fill-rule:nonzero;stroke:none"
             id="path116" /></g><g
           id="g118"
           transform="translate(375.2731,486.0503)"><path
             d="m 0,0 c -20.405,9.375 -34.743,20.956 -41.912,33.64 h 61.765 c 3.309,0 5.515,2.206 5.515,5.515 0,3.309 -2.206,5.514 -5.515,5.514 h -65.625 c -0.552,1.655 -0.552,3.861 -0.552,5.515 v 5.515 c 0,3.309 -2.206,5.515 -5.515,5.515 -3.308,0 -5.514,-2.206 -5.514,-5.515 v -5.515 c 0,-23.162 18.75,-44.669 52.941,-60.111 17.647,-8.272 30.883,-17.647 38.603,-28.125 h -58.456 c -3.309,0 -5.515,-2.206 -5.515,-5.514 0,-3.309 2.206,-5.515 5.515,-5.515 h 63.971 c 1.103,-3.86 2.206,-7.169 2.206,-11.03 0,-17.095 -14.338,-30.882 -26.471,-39.154 -2.757,-1.655 -3.309,-4.963 -1.654,-7.721 1.103,-1.654 2.757,-2.206 4.412,-2.206 1.103,0 2.206,0.552 3.308,1.103 20.405,13.787 31.434,30.331 31.434,47.978 C 52.941,-36.949 34.191,-15.441 0,0"
             style="fill:#de317a;fill-opacity:1;fill-rule:nonzero;stroke:none"
             id="path120" /></g><g
           id="g122"
           transform="translate(504.9774,484.7927)"><path
             d="M 0,0 C -1.507,-20.096 -15.807,-27.359 -25.774,-29.979 -22.029,-9.902 -7.869,-2.561 0,0 m -35.781,-41.929 c 0.034,0 4.343,0.278 4.343,0.278 1.812,0.152 44.357,4.269 42.007,48.553 l -0.199,3.896 c -0.023,0.431 -0.22,0.834 -0.548,1.113 -0.285,0.243 -0.647,0.376 -1.019,0.376 -0.055,0 -4.028,-0.423 -4.028,-0.423 -0.392,-0.038 -39.226,-4.978 -41.866,-47.946 l -0.256,-4.183 c -0.027,-0.45 0.139,-0.889 0.458,-1.206 0.296,-0.295 0.694,-0.458 1.108,-0.458"
             style="fill:#98bf13;fill-opacity:1;fill-rule:nonzero;stroke:none"
             id="path124" /></g><g
           id="g126"
           transform="translate(524.1835,439.6461)"><path
             d="m 0,0 c -5.516,3.662 -11.91,5.517 -19.006,5.517 -12.823,0 -24.824,-6.084 -30.11,-9.191 -11.915,6.737 -23.278,10.152 -33.786,10.152 -3.158,0 -6.284,-0.311 -9.287,-0.924 -0.449,-0.092 -0.834,-0.374 -1.057,-0.773 -0.223,-0.4 -0.26,-0.875 -0.102,-1.304 0.832,-2.267 1.503,-4.586 1.996,-6.891 0.157,-0.735 0.805,-1.242 1.532,-1.242 0.094,0 0.191,0.008 0.287,0.027 2.133,0.396 4.357,0.597 6.612,0.597 9.396,0 19.885,-3.459 31.183,-10.289 l 2.055,-1.224 c 0.247,-0.147 0.525,-0.22 0.802,-0.22 0.308,0 0.616,0.091 0.881,0.27 l 1.998,1.358 c 0.13,0.092 13.36,9.099 27.017,9.099 5.063,0 9.528,-1.275 13.301,-3.809 l 0.542,-0.336 c 1.472,-0.735 35.819,-18.644 17.681,-75.107 -1.448,-3.334 -14.115,-31.853 -27.846,-41.878 l -0.512,-0.432 c -0.543,-0.517 -3.484,-3.098 -8.121,-3.098 -3.074,0 -6.271,1.142 -9.621,3.467 l -0.709,0.401 c -0.086,0.041 -8.971,4.083 -19.118,4.083 -6.481,0 -12.06,-1.627 -16.556,-4.819 -0.052,-0.035 -5.221,-3.508 -10.815,-3.508 -2.663,0 -4.995,0.805 -6.929,2.392 -0.286,0.235 -0.639,0.357 -0.995,0.357 -0.228,0 -0.457,-0.05 -0.67,-0.15 -0.548,-0.259 -0.898,-0.812 -0.898,-1.418 v -0.623 c 0,-2.227 -0.597,-4.354 -1.725,-6.152 -0.228,-0.362 -0.297,-0.801 -0.193,-1.214 0.104,-0.415 0.373,-0.769 0.743,-0.981 3.175,-1.814 6.733,-2.732 10.571,-2.732 6.707,0 13.128,2.781 16.918,5.394 2.739,1.941 6.29,2.924 10.553,2.924 6.571,0 12.861,-2.358 14.402,-2.978 4.844,-3.275 9.885,-4.936 14.982,-4.936 6.775,0 12.368,3.036 15.194,5.751 15.674,11.634 28.705,40.643 31.236,46.533 C 42.503,-25.573 4.311,-2.373 0,0"
             style="fill:#98bf13;fill-opacity:1;fill-rule:nonzero;stroke:none"
             id="path128" /></g></g></g></g></svg>
